<svg xmlns="http://www.w3.org/2000/svg" version="1.1" xmlns:xlink="http://www.w3.org/1999/xlink" xmlns:svgjs="http://svgjs.dev/svgjs" width="1000" height="1000" viewBox="0 0 1000 1000"><rect width="1000" height="1000" fill="#000000"></rect><g transform="matrix(0.7,0,0,0.7,149.57575757575756,282.1265587044535)"><svg viewBox="0 0 396 247" data-background-color="#ffffff" preserveAspectRatio="xMidYMid meet" height="623" width="1000" xmlns="http://www.w3.org/2000/svg" xmlns:xlink="http://www.w3.org/1999/xlink"><g id="tight-bounds" transform="matrix(1,0,0,1,0.2400000000000091,-0.09999999999999432)"><svg viewBox="0 0 395.52 247.2" height="247.2" width="395.52"><g><svg viewBox="0 0 395.52 247.2" height="247.2" width="395.52"><g transform="matrix(1,0,0,1,0,75.57057212332973)"><svg viewBox="0 0 395.52 96.05885575334054" height="96.05885575334054" width="395.52"><g><svg viewBox="0 0 395.52 96.05885575334054" height="96.05885575334054" width="395.52"><g><svg viewBox="0 0 395.52 96.05885575334054" height="96.05885575334054" width="395.52"><g><svg viewBox="0 0 395.52 96.05885575334054" height="96.05885575334054" width="395.52"><g><svg viewBox="0 0 395.52 96.05885575334054" height="96.05885575334054" width="395.52" id="textblock"><g><svg viewBox="0 0 395.52 51.809556756756756" height="51.809556756756756" width="395.52"><g transform="matrix(1,0,0,1,0,0)"><svg width="395.52" viewBox="1.0499999523162842 -35.5 277.4800109863281 36.349998474121094" height="51.809556756756756" data-palette-color="#89939e"><path d="M8.05 0L1.05 0 1.05-1.1 2.05-1.4Q3-1.7 3.35-2.38 3.7-3.05 3.7-4.15L3.7-4.15 3.7-28.9Q3.7-29.9 3.45-30.53 3.2-31.15 2.2-31.5L2.2-31.5 1.05-31.95 1.05-33.05 10.6-33.05 20-8.6 28.85-33.05 38.6-33.05 38.6-31.95 37.8-31.7Q36.85-31.4 36.5-30.78 36.15-30.15 36.15-29.15L36.15-29.15Q36.1-26.25 36.1-23.38 36.1-20.5 36.1-17.55L36.1-17.55 36.1-15.5Q36.1-12.6 36.1-9.7 36.1-6.8 36.15-3.95L36.15-3.95Q36.15-2.9 36.4-2.35 36.65-1.8 37.6-1.45L37.6-1.45 38.6-1.1 38.6 0 26.45 0 26.45-1.1 27.55-1.45Q28.5-1.8 28.73-2.38 28.95-2.95 28.95-3.95L28.95-3.95 28.95-14.8 29.05-28.2 18.85 0 16.05 0 5.3-27.9 5.5-16.5 5.5-4.1Q5.5-3 5.8-2.35 6.1-1.7 7.05-1.45L7.05-1.45 8.05-1.1 8.05 0ZM53.45 0L40.9 0 40.9-1.05 41.7-1.3Q42.75-1.7 43.12-2.35 43.5-3 43.5-4.1L43.5-4.1Q43.55-6.95 43.55-9.83 43.55-12.7 43.55-15.6L43.55-15.6 43.55-17.4Q43.55-20.3 43.52-23.18 43.5-26.05 43.5-28.95L43.5-28.95Q43.5-30.15 43.15-30.78 42.8-31.4 41.7-31.75L41.7-31.75 40.9-32 40.9-33.05 55-33.05Q61-33.05 63.7-30.83 66.4-28.6 66.4-25.2L66.4-25.2Q66.4-22.6 64.5-20.53 62.6-18.45 57.85-17.55L57.85-17.55Q63.35-16.95 65.8-14.7 68.25-12.45 68.25-9.2L68.25-9.2Q68.25-7.6 67.55-5.98 66.85-4.35 65.17-3 63.5-1.65 60.65-0.83 57.8 0 53.45 0L53.45 0ZM50.65-31.6L50.65-17.9 53-17.9Q56.4-17.9 57.92-19.43 59.45-20.95 59.45-24.65L59.45-24.65Q59.45-28.5 58.05-30.05 56.65-31.6 53.65-31.6L53.65-31.6 50.65-31.6ZM50.65-16.45L50.65-1.45 53.4-1.45Q57.15-1.45 59-3.3 60.85-5.15 60.85-9.25L60.85-9.25Q60.85-13.2 59.07-14.83 57.3-16.45 53.25-16.45L53.25-16.45 50.65-16.45ZM92.24 0.85L92.24 0.85Q89.49 0.85 86.67 0.18 83.84-0.5 81.94-1.6L81.94-1.6 82.24-8.55 83.69-8.55 85.24-5.1Q85.94-3.65 86.69-2.7 87.44-1.75 88.69-1.25L88.69-1.25Q89.54-0.9 90.32-0.78 91.09-0.65 92.04-0.65L92.04-0.65Q95.09-0.65 96.87-2.23 98.64-3.8 98.64-6.4L98.64-6.4Q98.64-8.75 97.42-10.1 96.19-11.45 93.49-12.7L93.49-12.7 91.44-13.6Q87.24-15.45 84.82-17.9 82.39-20.35 82.39-24.4L82.39-24.4Q82.39-27.4 83.92-29.53 85.44-31.65 88.14-32.8 90.84-33.95 94.44-33.95L94.44-33.95Q97.09-33.95 99.42-33.25 101.74-32.55 103.49-31.35L103.49-31.35 103.14-25.15 101.69-25.15 99.84-28.9Q99.04-30.55 98.32-31.28 97.59-32 96.54-32.2L96.54-32.2Q95.94-32.3 95.52-32.35 95.09-32.4 94.39-32.4L94.39-32.4Q91.94-32.4 90.17-30.98 88.39-29.55 88.39-27.05L88.39-27.05Q88.39-24.65 89.74-23.15 91.09-21.65 93.64-20.5L93.64-20.5 95.89-19.55Q100.74-17.45 102.84-15.08 104.94-12.7 104.94-9L104.94-9Q104.94-4.6 101.62-1.88 98.29 0.85 92.24 0.85ZM119.94 0.7L119.94 0.7Q116.24 0.7 113.47-0.85 110.69-2.4 109.17-5.25 107.64-8.1 107.64-12.05L107.64-12.05Q107.64-16 109.27-18.85 110.89-21.7 113.67-23.23 116.44-24.75 119.94-24.75L119.94-24.75Q123.44-24.75 126.22-23.23 128.99-21.7 130.62-18.88 132.24-16.05 132.24-12.05L132.24-12.05Q132.24-8.1 130.72-5.23 129.19-2.35 126.44-0.83 123.69 0.7 119.94 0.7ZM119.94-0.7L119.94-0.7Q121.74-0.7 122.87-1.68 123.99-2.65 124.49-5.1 124.99-7.55 124.99-11.95L124.99-11.95Q124.99-16.4 124.49-18.88 123.99-21.35 122.87-22.33 121.74-23.3 119.94-23.3L119.94-23.3Q118.14-23.3 117.04-22.33 115.94-21.35 115.42-18.88 114.89-16.4 114.89-11.95L114.89-11.95Q114.89-7.55 115.42-5.1 115.94-2.65 117.04-1.68 118.14-0.7 119.94-0.7ZM147.49 0L134.59 0 134.59-0.95 135.34-1.15Q137.34-1.7 137.39-3.6L137.39-3.6Q137.39-5.35 137.41-7.08 137.44-8.8 137.44-10.5L137.44-10.5 137.44-22.45 134.59-22.45 134.59-23.55 135.69-23.75Q136.69-23.9 137.14-24.48 137.59-25.05 137.79-26.1L137.79-26.1Q138.34-28.1 139.26-29.58 140.19-31.05 141.49-32.3L141.49-32.3Q143.34-34.1 145.44-34.8 147.54-35.5 149.54-35.5L149.54-35.5Q151.49-35.5 153.11-34.73 154.74-33.95 154.74-32.1L154.74-32.1Q154.74-30.8 153.96-30.03 153.19-29.25 151.74-29.25L151.74-29.25Q149.44-29.25 147.69-31.95L147.69-31.95 147.09-32.65Q146.49-33.4 145.89-33.25 145.29-33.1 145.04-32.25L145.04-32.25Q144.64-30.65 144.41-28.5 144.19-26.35 144.14-24L144.14-24 149.89-24 149.89-22.45 144.14-22.45 144.14-10.5Q144.14-8.8 144.16-7.13 144.19-5.45 144.19-3.75L144.19-3.75Q144.19-1.75 146.19-1.3L146.19-1.3 147.49-0.95 147.49 0ZM160.99 0.7L160.99 0.7Q157.89 0.7 156.11-0.83 154.34-2.35 154.34-5.8L154.34-5.8Q154.34-7 154.36-8.08 154.39-9.15 154.39-10.6L154.39-10.6 154.39-22.45 150.84-22.45 150.84-23.55 152.19-23.75Q153.64-24 154.66-24.65 155.69-25.3 156.54-26.45L156.54-26.45 159.79-30.95 161.29-30.95 161.14-24 166.84-24 166.84-22.45 161.09-22.45 161.09-5.4Q161.09-3.6 161.86-2.7 162.64-1.8 163.79-1.8L163.79-1.8Q164.79-1.8 165.59-2.27 166.39-2.75 167.19-3.55L167.19-3.55 167.84-2.8Q166.89-1.15 165.19-0.23 163.49 0.7 160.99 0.7ZM182.48 0.15L179.68 0.15 172.03-20.65Q171.73-21.55 171.21-22.03 170.68-22.5 169.83-22.8L169.83-22.8 168.98-23.05 168.98-24 180.93-24 180.93-23.05 180.13-22.85Q178.23-22.35 178.88-20.45L178.88-20.45 183.43-6.85 187.63-18 186.88-20.25Q186.53-21.3 186.16-21.9 185.78-22.5 185.08-22.75L185.08-22.75 184.23-23.05 184.23-24 194.53-24 194.53-23.05 193.83-22.8Q193.03-22.5 192.86-21.98 192.68-21.45 193.03-20.45L193.03-20.45 197.48-7.15 201.98-20.4Q202.58-22.35 201.08-22.75L201.08-22.75 200.08-23.05 200.08-24 206.78-24 206.78-23.05 205.68-22.75Q204.83-22.5 204.38-22 203.93-21.5 203.63-20.6L203.63-20.6 196.43 0.15 193.83 0.15 188.38-15.8 182.48 0.15ZM215.73 0.7L215.73 0.7Q212.88 0.7 210.91-0.93 208.93-2.55 208.93-5.6L208.93-5.6Q208.93-8 211.26-10.03 213.58-12.05 218.58-13L218.58-13Q219.43-13.2 220.56-13.38 221.68-13.55 222.78-13.75L222.78-13.75 222.78-17.3Q222.78-20.7 221.93-22 221.08-23.3 219.23-23.3L219.23-23.3 219.08-23.3Q217.93-23.3 217.26-22.58 216.58-21.85 216.38-20.2L216.38-20.2 216.23-19.55Q216.08-17.55 215.18-16.63 214.28-15.7 212.93-15.7L212.93-15.7Q211.68-15.7 210.86-16.48 210.03-17.25 210.03-18.5L210.03-18.5Q210.03-20.55 211.43-21.95 212.83-23.35 215.16-24.05 217.48-24.75 220.18-24.75L220.18-24.75Q224.63-24.75 226.98-22.6 229.33-20.45 229.33-15.6L229.33-15.6 229.33-4.45Q229.33-2.3 231.38-2.3L231.38-2.3 232.53-2.3 233.03-1.75Q232.13-0.6 231.03 0.03 229.93 0.65 228.03 0.65L228.03 0.65Q225.88 0.65 224.61-0.38 223.33-1.4 222.93-3.1L222.93-3.1Q221.33-1.4 219.78-0.35 218.23 0.7 215.73 0.7ZM218.63-2.5L218.63-2.5Q219.63-2.5 220.53-2.95 221.43-3.4 222.78-4.45L222.78-4.45 222.78-12.45Q221.48-12.25 220.13-11.95L220.13-11.95Q217.98-11.45 216.66-10.1 215.33-8.75 215.33-6.45L215.33-6.45Q215.33-4.45 216.26-3.48 217.18-2.5 218.63-2.5ZM246.68 0L234.18 0 234.18-0.95 234.93-1.2Q235.93-1.45 236.3-2.05 236.68-2.65 236.68-3.65L236.68-3.65 236.68-18.3Q236.63-19.4 236.28-19.98 235.93-20.55 234.93-20.75L234.93-20.75 234.18-20.95 234.18-21.85 242.33-24.75 242.93-24.2 243.38-19.8 243.38-19.45Q244.13-20.85 245.28-22.05 246.43-23.25 247.78-24 249.13-24.75 250.48-24.75L250.48-24.75Q252.38-24.75 253.33-23.75 254.28-22.75 254.28-21.2L254.28-21.2Q254.28-19.5 253.33-18.63 252.38-17.75 251.03-17.75L251.03-17.75Q249.03-17.75 247.58-19.55L247.58-19.55 247.48-19.65Q246.98-20.25 246.35-20.33 245.73-20.4 245.13-19.7L245.13-19.7Q244.63-19.2 244.2-18.53 243.78-17.85 243.43-16.95L243.43-16.95 243.43-3.85Q243.43-2.9 243.83-2.27 244.23-1.65 245.18-1.4L245.18-1.4 246.68-0.95 246.68 0ZM268.43-24.75L268.43-24.75Q271.58-24.75 273.83-23.45 276.08-22.15 277.3-19.88 278.53-17.6 278.53-14.65L278.53-14.65Q278.53-14 278.48-13.43 278.43-12.85 278.28-12.35L278.28-12.35 263.23-12.35Q263.28-7.2 265.15-4.95 267.03-2.7 270.63-2.7L270.63-2.7Q273.13-2.7 274.68-3.53 276.23-4.35 277.53-5.85L277.53-5.85 278.33-5.1Q276.83-2.35 274.25-0.83 271.68 0.7 268.13 0.7L268.13 0.7Q264.58 0.7 261.88-0.8 259.18-2.3 257.65-5.13 256.13-7.95 256.13-11.9L256.13-11.9Q256.13-16 257.9-18.85 259.68-21.7 262.5-23.23 265.33-24.75 268.43-24.75ZM268.18-23.3L268.18-23.3Q266.73-23.3 265.65-22.48 264.58-21.65 263.95-19.58 263.33-17.5 263.23-13.75L263.23-13.75 272.18-13.75Q272.73-18.8 271.78-21.05 270.83-23.3 268.18-23.3Z" opacity="1" transform="matrix(1,0,0,1,0,0)" fill="#ffffff" class="undefined-text-0" data-fill-palette-color="primary" id="text-0"></path></svg></g></svg></g><g transform="matrix(1,0,0,1,0,64.04054967766487)"><svg viewBox="0 0 395.52 32.018306075675675" height="32.018306075675675" width="395.52"><g transform="matrix(1,0,0,1,0,0)"><svg width="395.52" viewBox="2.75 -37.75 623.8200073242188 50.5" height="32.018306075675675" data-palette-color="#dedede"><path d="M2.75 0L2.75-1.65Q4.65-1.75 5.35-2.53 6.05-3.3 6.13-4.67 6.2-6.05 6.2-7.8L6.2-7.8 6.2-29.4Q6.2-30.4 6.25-31.33 6.3-32.25 6.35-33L6.35-33Q5.45-32.95 4.55-32.9 3.65-32.85 2.75-32.8L2.75-32.8 2.75-35 14.55-35.05Q19.05-35.05 22.8-34 26.55-32.95 29.28-30.78 32-28.6 33.48-25.28 34.95-21.95 34.95-17.45L34.95-17.45Q34.95-14 33.75-10.85 32.55-7.7 30.15-5.28 27.75-2.85 24.18-1.43 20.6 0 15.9 0L15.9 0 2.75 0ZM10.55-27.2L10.55-5.9Q10.55-4.55 10.53-3.6 10.5-2.65 10.4-2L10.4-2Q11.75-1.95 12.88-1.93 14-1.9 14.78-1.9 15.55-1.9 15.75-1.9L15.75-1.9Q19-1.9 21.63-3.1 24.25-4.3 26.13-6.43 28-8.55 29.03-11.43 30.05-14.3 30.05-17.65L30.05-17.65Q30.05-22.4 28.33-25.88 26.6-29.35 23.05-31.28 19.5-33.2 14-33.2L14-33.2Q12.15-33.2 11.43-32.45 10.7-31.7 10.63-30.35 10.55-29 10.55-27.2L10.55-27.2ZM83.23 0.8L83.23 0.8Q79.78 0.8 77.01-0.83 74.23-2.45 72.63-5.43 71.03-8.4 71.03-12.45L71.03-12.45Q71.03-15.95 72.61-19 74.18-22.05 77.03-23.93 79.88-25.8 83.63-25.8L83.63-25.8Q85.73-25.8 87.56-25.13 89.38-24.45 90.78-23.08 92.18-21.7 92.98-19.63 93.78-17.55 93.78-14.75L93.78-14.75 76.18-14.45Q76.18-10.65 77.01-7.78 77.83-4.9 79.68-3.33 81.53-1.75 84.43-1.75L84.43-1.75Q85.98-1.75 87.61-2.3 89.23-2.85 90.63-3.8 92.03-4.75 92.88-5.9L92.88-5.9 94.08-4.9Q92.73-2.8 90.83-1.55 88.93-0.3 86.93 0.25 84.93 0.8 83.23 0.8ZM76.33-16.55L76.33-16.55 89.08-16.55Q89.08-18.35 88.56-20.03 88.03-21.7 86.83-22.78 85.63-23.85 83.68-23.85L83.68-23.85Q80.78-23.85 78.86-22.13 76.93-20.4 76.33-16.55ZM141.16 0.15L139.16 0.15 132.01-16.15Q131.21-18.05 130.76-19.4 130.31-20.75 130.14-21.65 129.96-22.55 129.91-23.1L129.91-23.1 127.76-22.95 127.76-25 136.96-25 136.96-23.5Q135.46-23.5 135.04-22.73 134.61-21.95 134.91-20.68 135.21-19.4 135.81-17.95L135.81-17.95 139.66-9.15Q140.06-8.3 140.44-7.38 140.81-6.45 141.16-5.45L141.16-5.45 141.21-5.45Q141.46-6.2 141.79-7.05 142.11-7.9 142.36-8.7L142.36-8.7 146.36-19.65Q146.76-20.85 147.21-21.75 147.66-22.65 147.86-23.1L147.86-23.1 144.66-22.95 144.66-25 152.56-25 152.56-23.5Q151.46-23.5 150.71-22.75 149.96-22 149.29-20.5 148.61-19 147.71-16.75L147.71-16.75 141.16 0.15ZM198.45 0.8L198.45 0.8Q195 0.8 192.22-0.83 189.45-2.45 187.85-5.43 186.25-8.4 186.25-12.45L186.25-12.45Q186.25-15.95 187.82-19 189.4-22.05 192.25-23.93 195.1-25.8 198.85-25.8L198.85-25.8Q200.95-25.8 202.77-25.13 204.6-24.45 206-23.08 207.4-21.7 208.2-19.63 209-17.55 209-14.75L209-14.75 191.4-14.45Q191.4-10.65 192.22-7.78 193.05-4.9 194.9-3.33 196.75-1.75 199.65-1.75L199.65-1.75Q201.2-1.75 202.82-2.3 204.45-2.85 205.85-3.8 207.25-4.75 208.1-5.9L208.1-5.9 209.3-4.9Q207.95-2.8 206.05-1.55 204.15-0.3 202.15 0.25 200.15 0.8 198.45 0.8ZM191.55-16.55L191.55-16.55 204.3-16.55Q204.3-18.35 203.77-20.03 203.25-21.7 202.05-22.78 200.85-23.85 198.9-23.85L198.9-23.85Q196-23.85 194.07-22.13 192.15-20.4 191.55-16.55ZM244.63 0L244.63-1.5Q246.18-1.5 246.78-2.27 247.38-3.05 247.48-4.42 247.58-5.8 247.58-7.6L247.58-7.6 247.58-31.25Q247.58-32.05 247.6-32.77 247.63-33.5 247.73-34.5L247.73-34.5Q246.83-34.45 245.95-34.4 245.08-34.35 244.18-34.3L244.18-34.3 244.18-36.4Q246.38-36.4 247.6-36.6 248.83-36.8 249.45-37.1 250.08-37.4 250.43-37.75L250.43-37.75 251.88-37.75 251.93-5.3Q251.93-4.3 251.88-3.53 251.83-2.75 251.68-1.9L251.68-1.9Q252.48-1.95 253.25-1.98 254.03-2 254.83-2.05L254.83-2.05 254.83 0 244.63 0ZM302.81 0.8L302.81 0.8Q299.31 0.8 296.46-0.83 293.61-2.45 291.94-5.33 290.26-8.2 290.26-11.9L290.26-11.9Q290.26-15.85 291.91-19 293.56-22.15 296.41-23.98 299.26-25.8 302.81-25.8L302.81-25.8Q306.31-25.8 309.16-24.13 312.01-22.45 313.71-19.6 315.41-16.75 315.41-13.1L315.41-13.1Q315.41-9.25 313.74-6.08 312.06-2.9 309.21-1.05 306.36 0.8 302.81 0.8ZM303.21-1.2L303.21-1.2Q305.86-1.2 307.41-2.7 308.96-4.2 309.64-6.6 310.31-9 310.31-11.65L310.31-11.65Q310.31-13.9 309.89-16.07 309.46-18.25 308.56-20.03 307.66-21.8 306.24-22.85 304.81-23.9 302.81-23.9L302.81-23.9Q300.21-23.9 298.56-22.4 296.91-20.9 296.14-18.5 295.36-16.1 295.36-13.35L295.36-13.35Q295.36-10.25 296.21-7.48 297.06-4.7 298.81-2.95 300.56-1.2 303.21-1.2ZM361.09 12.75L350.89 12.75 350.89 11.25Q352.44 11.25 353.04 10.48 353.64 9.7 353.74 8.33 353.84 6.95 353.84 5.15L353.84 5.15 353.94-19Q353.94-19.8 353.97-20.6 353.99-21.4 354.14-22.25L354.14-22.25Q353.24-22.2 352.37-22.15 351.49-22.1 350.59-22.05L350.59-22.05 350.59-24.15Q352.79-24.15 353.92-24.35 355.04-24.55 355.57-24.85 356.09-25.15 356.44-25.5L356.44-25.5 357.94-25.5Q357.99-25 358.04-24.33 358.09-23.65 358.14-22.8L358.14-22.8Q359.64-24.15 361.72-24.98 363.79-25.8 365.89-25.8L365.89-25.8Q368.79-25.8 371.29-24.3 373.79-22.8 375.34-20.03 376.89-17.25 376.89-13.4L376.89-13.4Q376.89-9.15 375.12-5.95 373.34-2.75 370.44-0.98 367.54 0.8 364.14 0.8L364.14 0.8Q362.39 0.8 360.92 0.38 359.44-0.05 358.14-0.85L358.14-0.85 358.14 7.45Q358.14 8.45 358.12 9.22 358.09 10 357.94 10.85L357.94 10.85Q358.74 10.8 359.52 10.78 360.29 10.75 361.09 10.7L361.09 10.7 361.09 12.75ZM364.04-1.2L364.04-1.2Q366.44-1.2 368.17-2.68 369.89-4.15 370.82-6.73 371.74-9.3 371.74-12.6L371.74-12.6Q371.74-15.3 370.97-17.78 370.19-20.25 368.52-21.8 366.84-23.35 364.09-23.35L364.09-23.35Q362.39-23.35 360.82-22.53 359.24-21.7 358.19-20.55L358.19-20.55Q358.19-20.35 358.22-19.98 358.24-19.6 358.24-18.68 358.24-17.75 358.24-15.93 358.24-14.1 358.22-11 358.19-7.9 358.19-3.15L358.19-3.15Q359.44-2.2 360.92-1.7 362.39-1.2 364.04-1.2ZM423.08 0L412.88 0 412.88-1.5Q414.43-1.5 415.03-2.27 415.63-3.05 415.73-4.42 415.83-5.8 415.83-7.6L415.83-7.6 415.83-19Q415.83-19.8 415.85-20.6 415.88-21.4 416.03-22.25L416.03-22.25Q415.13-22.2 414.25-22.15 413.38-22.1 412.48-22.05L412.48-22.05 412.48-24.15Q414.68-24.15 415.8-24.35 416.93-24.55 417.48-24.85 418.03-25.15 418.38-25.5L418.38-25.5 419.83-25.5Q419.93-25 419.95-24.35 419.98-23.7 420.03-22.85L420.03-22.85Q421.53-24.15 423.48-24.98 425.43-25.8 427.38-25.8L427.38-25.8Q429.88-25.8 431.58-24.9 433.28-24 434.23-22.45L434.23-22.45Q435.93-23.85 438.15-24.83 440.38-25.8 442.53-25.8L442.53-25.8Q446.88-25.8 448.93-23.18 450.98-20.55 450.88-14.6L450.88-14.6 450.83-5.3Q450.83-4.3 450.8-3.53 450.78-2.75 450.63-1.9L450.63-1.9Q451.43-1.95 452.2-1.98 452.98-2 453.78-2.05L453.78-2.05 453.78 0 443.58 0 443.58-1.5Q445.13-1.5 445.73-2.27 446.33-3.05 446.43-4.42 446.53-5.8 446.53-7.6L446.53-7.6 446.53-14.6Q446.53-18.9 445.15-21.05 443.78-23.2 440.83-23.15L440.83-23.15Q439.28-23.15 437.73-22.45 436.18-21.75 435.03-20.7L435.03-20.7Q435.28-19.9 435.4-18.98 435.53-18.05 435.53-17.05L435.53-17.05Q435.48-14.15 435.48-11.2 435.48-8.25 435.43-5.3L435.43-5.3Q435.43-4.3 435.4-3.53 435.38-2.75 435.23-1.9L435.23-1.9Q436.03-1.95 436.8-1.98 437.58-2 438.38-2.05L438.38-2.05 438.38 0 428.18 0 428.18-1.5Q429.73-1.5 430.3-2.27 430.88-3.05 431-4.42 431.13-5.8 431.13-7.6L431.13-7.6 431.18-14.6Q431.23-18.9 429.93-21.1 428.63-23.3 425.68-23.25L425.68-23.25Q424.13-23.25 422.63-22.58 421.13-21.9 420.08-20.85L420.08-20.85Q420.08-20.25 420.1-19.58 420.13-18.9 420.13-18.15L420.13-18.15 420.13-5.3Q420.13-4.3 420.1-3.53 420.08-2.75 419.93-1.9L419.93-1.9Q420.73-1.95 421.5-1.98 422.28-2 423.08-2.05L423.08-2.05 423.08 0ZM501.36 0.8L501.36 0.8Q497.91 0.8 495.13-0.83 492.36-2.45 490.76-5.43 489.16-8.4 489.16-12.45L489.16-12.45Q489.16-15.95 490.73-19 492.31-22.05 495.16-23.93 498.01-25.8 501.76-25.8L501.76-25.8Q503.86-25.8 505.68-25.13 507.51-24.45 508.91-23.08 510.31-21.7 511.11-19.63 511.91-17.55 511.91-14.75L511.91-14.75 494.31-14.45Q494.31-10.65 495.13-7.78 495.96-4.9 497.81-3.33 499.66-1.75 502.56-1.75L502.56-1.75Q504.11-1.75 505.73-2.3 507.36-2.85 508.76-3.8 510.16-4.75 511.01-5.9L511.01-5.9 512.21-4.9Q510.86-2.8 508.96-1.55 507.06-0.3 505.06 0.25 503.06 0.8 501.36 0.8ZM494.46-16.55L494.46-16.55 507.21-16.55Q507.21-18.35 506.68-20.03 506.16-21.7 504.96-22.78 503.76-23.85 501.81-23.85L501.81-23.85Q498.91-23.85 496.98-22.13 495.06-20.4 494.46-16.55ZM558.24 0L548.04 0 548.04-1.5Q549.59-1.5 550.19-2.27 550.79-3.05 550.89-4.42 550.99-5.8 550.99-7.6L550.99-7.6 551.04-19Q551.04-19.8 551.07-20.6 551.09-21.4 551.24-22.25L551.24-22.25Q550.34-22.2 549.47-22.15 548.59-22.1 547.69-22.05L547.69-22.05 547.69-24.15Q549.89-24.15 551.02-24.35 552.14-24.55 552.69-24.85 553.24-25.15 553.59-25.5L553.59-25.5 555.04-25.5Q555.09-25.15 555.12-24.7 555.14-24.25 555.19-23.7 555.24-23.15 555.24-22.45L555.24-22.45Q556.34-23.4 557.67-24.15 558.99-24.9 560.47-25.35 561.94-25.8 563.39-25.8L563.39-25.8Q567.74-25.8 569.74-23.08 571.74-20.35 571.74-14.6L571.74-14.6 571.74-5.3Q571.74-4.3 571.72-3.53 571.69-2.75 571.54-1.9L571.54-1.9Q572.34-1.95 573.12-1.98 573.89-2 574.69-2.05L574.69-2.05 574.69 0 564.49 0 564.49-1.5Q566.04-1.5 566.64-2.27 567.24-3.05 567.34-4.42 567.44-5.8 567.44-7.6L567.44-7.6 567.44-14.6Q567.39-18.9 566.02-21.1 564.64-23.3 561.69-23.25L561.69-23.25Q559.89-23.2 558.17-22.3 556.44-21.4 555.29-20L555.29-20Q555.34-19.6 555.34-19.1 555.34-18.6 555.34-18.05L555.34-18.05 555.29-5.3Q555.29-4.3 555.27-3.53 555.24-2.75 555.09-1.9L555.09-1.9Q555.89-1.95 556.67-1.98 557.44-2 558.24-2.05L558.24-2.05 558.24 0ZM619.02 0.8L619.02 0.8Q617.87 0.8 616.67 0.48 615.47 0.15 614.45-0.8 613.42-1.75 612.82-3.58 612.22-5.4 612.22-8.4L612.22-8.4 612.32-22.9 608.47-22.85 608.47-25Q609.77-25.05 611.12-25.98 612.47-26.9 613.55-28.5 614.62-30.1 615.02-32L615.02-32 616.72-32 616.72-25 625.12-25 625.12-23.05 616.72-22.95 616.62-9.05Q616.62-6.8 617-5.23 617.37-3.65 618.22-2.85 619.07-2.05 620.42-2.05L620.42-2.05Q621.82-2.05 623.05-2.85 624.27-3.65 625.22-5.05L625.22-5.05 626.57-3.95Q625.47-2.3 624.4-1.35 623.32-0.4 622.32 0.08 621.32 0.55 620.47 0.68 619.62 0.8 619.02 0.8Z" opacity="1" transform="matrix(1,0,0,1,0,0)" fill="#ffffff" class="undefined-text-1" data-fill-palette-color="secondary" id="text-1"></path></svg></g></svg></g></svg></g></svg></g></svg></g></svg></g></svg></g></svg></g><defs></defs></svg><rect width="395.52" height="247.2" fill="none" stroke="none" visibility="hidden"></rect></g></svg></g></svg>